<?xml version="1.0" encoding="UTF-8" standalone="no"?>
<!-- Generator: Adobe Illustrator 21.0.2, SVG Export Plug-In . SVG Version: 6.00 Build 0)  -->

<svg
   xmlns:dc="http://purl.org/dc/elements/1.1/"
   xmlns:cc="http://creativecommons.org/ns#"
   xmlns:rdf="http://www.w3.org/1999/02/22-rdf-syntax-ns#"
   xmlns:svg="http://www.w3.org/2000/svg"
   xmlns="http://www.w3.org/2000/svg"
   xmlns:xlink="http://www.w3.org/1999/xlink"
   xmlns:sodipodi="http://sodipodi.sourceforge.net/DTD/sodipodi-0.dtd"
   xmlns:inkscape="http://www.inkscape.org/namespaces/inkscape"
   version="1.1"
   id="Ebene_1"
   x="0px"
   y="0px"
   viewBox="0 0 309.49999 64.4"
   xml:space="preserve"
   sodipodi:docname="Logo.svg"
   width="309.5"
   height="64.400002"
   inkscape:version="0.92.1 r15371"><metadata
     id="metadata23"><rdf:RDF><cc:Work
         rdf:about=""><dc:format>image/svg+xml</dc:format><dc:type
           rdf:resource="http://purl.org/dc/dcmitype/StillImage" /><dc:title></dc:title></cc:Work></rdf:RDF></metadata><defs
     id="defs21" /><sodipodi:namedview
     pagecolor="#ffffff"
     bordercolor="#666666"
     borderopacity="1"
     objecttolerance="10"
     gridtolerance="10"
     guidetolerance="10"
     inkscape:pageopacity="0"
     inkscape:pageshadow="2"
     inkscape:window-width="640"
     inkscape:window-height="480"
     id="namedview19"
     showgrid="false"
     fit-margin-top="0"
     fit-margin-left="0"
     fit-margin-right="0"
     fit-margin-bottom="0"
     inkscape:zoom="0.55503291"
     inkscape:cx="154.60001"
     inkscape:cy="31.899994"
     inkscape:window-x="2287"
     inkscape:window-y="185"
     inkscape:window-maximized="0"
     inkscape:current-layer="Ebene_1" /><style
     type="text/css"
     id="style2">
	.st0{clip-path:url(#SVGID_2_);fill:#1D1D1B;}
	.st1{clip-path:url(#SVGID_2_);fill:#E4003A;}
</style><g
     id="g16"
     transform="translate(-58,-180.1)"><g
       id="g14"><defs
         id="defs5"><rect
           id="SVGID_1_"
           x="58"
           y="180"
           width="309.5"
           height="64.5" /></defs><clipPath
         id="SVGID_2_"><use
           xlink:href="#SVGID_1_"
           style="overflow:visible"
           id="use7"
           x="0"
           y="0"
           width="100%"
           height="100%" /></clipPath><path
         class="st0"
         d="m 362.4,201.8 v 1.4 h 0.6 c 0.6,0 0.8,-0.1 0.8,-0.7 0,-0.6 -0.2,-0.7 -0.8,-0.7 z m 2.4,0.7 c 0,0.9 -0.2,1.2 -0.9,1.4 l 1,1.6 c 0,0 0,0.1 0,0.1 H 364 c -0.1,0 -0.1,0 -0.2,-0.1 l -1,-1.5 h -0.5 v 1.6 c 0,0.1 0,0.1 -0.1,0.1 h -0.8 c -0.1,0 -0.1,0 -0.1,-0.1 v -4.4 c 0,0 0,-0.1 0.1,-0.1 0.5,0 1.1,-0.1 1.6,-0.1 1.4,0 1.8,0.3 1.8,1.5 z m 2,0.7 c 0,-2.6 -1.2,-3.8 -3.8,-3.8 -2.6,0 -3.8,1.2 -3.8,3.8 0,2.6 1.2,3.8 3.8,3.8 2.6,0 3.8,-1.1 3.8,-3.8 z m -8.3,0 c 0,-3.1 1.4,-4.5 4.5,-4.5 3.1,0 4.5,1.4 4.5,4.5 0,3.1 -1.4,4.5 -4.5,4.5 -3.1,0.1 -4.5,-1.4 -4.5,-4.5 z m -20.1,-4.4 c 0.6,0 0.9,0.4 0.9,1 v 23.1 l 9.2,-10.9 c 0.3,-0.4 0.7,-0.6 1.3,-0.6 h 6.4 c 1.1,0 1.1,0.5 0.5,1.1 l -10.1,11.8 13.1,18.3 c 0.5,0.7 0.6,1.6 -1,1.6 H 353 c -0.6,0 -1,-0.3 -1.3,-0.7 l -12.3,-17.7 v 17.4 c 0,0.7 -0.3,1 -0.9,1 H 333 c -0.6,0 -0.9,-0.3 -0.9,-1 v -43.5 c 0,-0.6 0.3,-1 0.9,-1 h 5.4 z m -13.9,26.3 v 18.2 c 0,0.6 -0.4,0.9 -1,0.9 h -5.4 c -0.6,0 -0.9,-0.3 -0.9,-0.9 v -16.9 c 0,-8.8 -1.4,-9.2 -7,-9.2 h -6.8 v 26.1 c 0,0.6 -0.3,0.9 -0.9,0.9 H 297 c -0.6,0 -0.8,-0.3 -0.8,-0.9 v -30.4 c 0,-0.8 0.3,-0.8 0.8,-1 4.4,-0.9 9.7,-1 13.3,-1 11.2,0.1 14.2,1.8 14.2,14.2 z m -36.7,-13.8 c 0.6,0 0.9,0.3 0.9,0.9 v 30.3 c 0,0.8 -0.3,0.8 -0.9,1 -4.4,0.9 -9.7,1 -13.3,1 -11,0 -14.1,-1.7 -14.1,-14.2 v -18.1 c 0,-0.6 0.4,-0.9 1,-0.9 h 5.4 c 0.6,0 0.8,0.3 0.8,0.9 V 229 c 0,8.8 1.4,9.2 7,9.2 h 6.8 v -26.1 c 0,-0.6 0.3,-0.9 0.9,-0.9 h 5.5 z M 240.1,206 c 0,-7.1 5.2,-7.6 9.6,-7.6 1.8,0 4,0.2 5.8,0.5 0.6,0.1 0.9,0.4 0.9,1.1 v 3.7 c 0,0.6 -0.3,0.9 -1,0.9 h -3.9 c -2.9,0 -4.2,0.2 -4.2,2.8 v 3.9 h 7.4 c 0.7,0 0.9,0.3 0.8,1 l -0.7,3.9 c -0.1,0.6 -0.4,0.8 -1,0.8 h -6.5 v 26.3 c 0,0.6 -0.3,0.9 -0.9,0.9 H 241 c -0.6,0 -0.9,-0.3 -0.9,-0.9 z m -29.5,21.8 c 0,8.4 0.9,10.5 7.3,10.5 6.4,0 7.3,-2.1 7.3,-10.5 0,-8.4 -0.9,-10.5 -7.3,-10.5 -6.4,0 -7.3,2 -7.3,10.5 z m 21.8,0 c 0,13.4 -2.6,16.7 -14.5,16.7 -11.9,0 -14.5,-3.3 -14.5,-16.7 0,-13.4 2.6,-16.8 14.5,-16.8 11.9,0 14.5,3.3 14.5,16.8 z M 198,211.7 c 0.6,0.2 1,0.4 1,1.1 v 3.6 c 0,0.7 -0.4,1 -1,0.9 h -5.4 c -3.6,0 -4.6,0.6 -4.6,3.2 v 22.8 c 0,0.6 -0.3,0.9 -0.9,0.9 h -5.4 c -0.6,0 -0.9,-0.3 -0.9,-0.9 v -24.7 c 0,-7.1 5.7,-7.6 10.1,-7.6 1.4,0 5.5,0.2 7.1,0.7 z m -25.9,-0.4 c 0.6,0 0.9,0.3 0.9,0.9 v 30.3 c 0,0.8 -0.3,0.8 -0.9,1 -4.4,0.9 -9.7,1 -13.3,1 -11,0 -14.1,-1.7 -14.1,-14.2 v -18.1 c 0,-0.6 0.4,-0.9 1,-0.9 h 5.4 c 0.6,0 0.8,0.3 0.8,0.9 V 229 c 0,8.8 1.4,9.2 7,9.2 h 6.8 v -26.1 c 0,-0.6 0.3,-0.9 0.9,-0.9 h 5.5 z M 118,225.4 h 13.6 c -0.1,-6.4 -1.4,-8.1 -6.7,-8.1 -5.5,0 -6.8,1.6 -6.9,8.1 z m 20.9,1.7 v 1.8 c 0,1.1 -0.4,1.6 -2,1.6 H 118 c 0.2,6.3 1.6,7.7 7.4,7.7 h 10.2 c 0.6,0 0.9,0.3 0.9,0.9 v 3.7 c 0,0.7 -0.3,0.9 -0.8,1 -3.2,0.5 -6.8,0.7 -10.6,0.7 -11.6,0 -14.2,-3.3 -14.2,-16.7 0,-13.4 2.6,-16.8 14.2,-16.8 11,0 13.7,3.2 13.8,16.1 z"
         clip-path="url(#SVGID_2_)"
         id="path10"
         inkscape:connector-curvature="0"
         style="fill:#1d1d1b" /><path
         class="st1"
         d="M 94.5,196.8 V 207 c 0,5.3 -4.3,9.5 -9.5,9.5 h -8.6 c -5.3,0 -9.5,-4.3 -9.5,-9.5 v -8.6 c 0,-5.3 4.3,-9.5 9.5,-9.5 h 10.1 c 1.1,0 2.2,-0.4 3,-1.2 l 5.6,-5.6 c 0.8,-0.8 0.2,-2 -0.8,-2 H 76.5 c -10.2,0 -18.5,8.3 -18.5,18.5 v 8.4 c 0,10.2 8.3,18.5 18.5,18.5 h 8.4 c 10.2,0 18.5,-8.3 18.5,-18.5 v -17.7 c 0,-1.1 -1.3,-1.6 -2,-0.8 l -5.6,5.6 c -0.8,0.5 -1.3,1.6 -1.3,2.7 z"
         clip-path="url(#SVGID_2_)"
         id="path12"
         inkscape:connector-curvature="0"
         style="fill:#E4003A" /></g></g></svg>